<?xml version="1.0" encoding="UTF-8"?>
<svg width="56px" height="60px" viewBox="0 0 56 60" version="1.1" xmlns="http://www.w3.org/2000/svg" xmlns:xlink="http://www.w3.org/1999/xlink">
    <title>Logos/Airbnb</title>
    <g id="⚙️-Symbols" stroke="none" stroke-width="1" fill="none" fill-rule="evenodd">
        <g id="Cards/Logo/Large/Default" transform="translate(-52.000000, -50.000000)" fill="#E0565B" fill-rule="nonzero">
            <g id="Logos/Airbnb" transform="translate(50.000000, 50.000000)">
                <path d="M53.6678767,48.5935604 C53.249321,51.7181521 51.1537525,54.419972 48.2210728,55.6210919 C46.7840318,56.220252 45.2270048,56.4022399 43.6699779,56.220252 C42.1743391,56.0410639 40.67591,55.559496 39.1216734,54.6607559 C36.9675071,53.4568362 34.8105504,51.5977601 32.2964263,48.8343444 C36.2475914,43.9682688 38.6417296,39.524965 39.540229,35.5604293 C39.9587846,33.6985534 40.0201728,32.0158656 39.8387987,30.4535698 C39.5988268,28.9528698 39.0602852,27.569762 38.223174,26.3686421 C36.3675774,23.6668222 33.2535235,22.1045264 29.7823021,22.1045264 C26.3110808,22.1045264 23.1970269,23.7256183 21.3414303,26.3686421 C20.504319,27.569762 19.9657775,28.9528698 19.7258056,30.4535698 C19.4858337,32.0158656 19.5472218,33.7573495 20.0243752,35.5604293 C20.9228747,39.524965 23.3756106,44.0298647 27.268178,48.8931405 C24.8126516,51.6565562 22.5998875,53.5184321 20.4429309,54.719552 C18.8859039,55.6210919 17.3902652,56.1026598 15.8946264,56.2818479 C14.3515513,56.4554363 12.791734,56.2482501 11.3463219,55.6826878 C8.41364211,54.4815679 6.3180736,51.7769482 5.89951797,48.6551563 C5.72093424,47.1544564 5.84092018,45.6537564 6.43805955,43.9710686 C6.61664328,43.3691087 6.91800333,42.7699487 7.21657302,42.0503966 C7.63512864,41.0900607 8.11507243,40.0681288 8.59222585,39.0461969 L8.65361401,38.9258049 C12.7833629,29.9748017 17.2144718,20.8446104 21.8241645,11.955203 L22.0027482,11.5940271 C22.482692,10.695287 22.9598454,9.73215119 23.4397892,8.83061129 C23.919733,7.87027531 24.4582745,6.96873542 25.1168021,6.18758749 C26.3752593,4.74568362 28.0494818,3.9645357 29.9050785,3.9645357 C31.7606751,3.9645357 33.437688,4.74568362 34.6933548,6.18758749 C35.3518824,6.96873542 35.8904239,7.87027531 36.3703677,8.83061129 C36.8503115,9.73215119 37.3274649,10.6924872 37.8074087,11.5912273 L37.9887828,11.9524032 C42.5370873,20.9006066 46.9681962,30.0307979 51.0979451,38.9818012 L51.0979451,39.0405973 C51.5778889,40.0009333 51.9964445,41.084461 52.4735979,42.044797 C52.7721676,42.7671489 53.0735277,43.3663089 53.2521114,43.965469 C53.7292648,45.5305646 53.9078486,47.0312646 53.6678767,48.5935604 Z M29.7823021,45.7685488 C26.5510527,41.6836211 24.4554842,37.8394774 23.7355685,34.5972935 C23.4369988,33.2141857 23.3756106,32.0130658 23.5569848,30.9323378 C23.6769707,29.9720019 24.0369285,29.129258 24.514082,28.409706 C25.6525533,26.7886141 27.5667477,25.7666822 29.7823021,25.7666822 C31.9978566,25.7666822 33.9734392,26.729818 35.0505223,28.409706 C35.5304661,29.1320579 35.8876336,29.9720019 36.0076195,30.9323378 C36.1862033,32.0130658 36.1276055,33.2757816 35.8290358,34.5972935 C35.1119105,37.7806813 33.016342,41.624825 29.7823021,45.7685488 L29.7823021,45.7685488 Z M56.7819305,42.6467569 C56.4833609,41.9272049 56.1820008,41.1460569 55.8834311,40.485301 C55.4034873,39.404573 54.9263339,38.3826412 54.5049879,37.4223052 L54.4463901,37.3635091 C50.3166413,28.3537098 45.8855323,19.2235184 41.2172419,10.2137191 L41.0386582,9.85254316 C40.5587144,8.95100327 40.081561,7.99066729 39.6016172,7.03033131 C39.0016874,5.94960336 38.4045481,4.80727951 37.4474509,3.72655156 C35.5304661,1.3215119 32.7763701,0 29.8436903,0 C26.8496224,0 24.1569145,1.3215119 22.1785415,3.60335978 C21.2800421,4.68408773 20.6215146,5.82641157 20.0243752,6.90713952 C19.5444315,7.8674755 19.067278,8.82781148 18.5873343,9.72935138 L18.4087505,10.0877275 C13.7990579,19.0975268 9.30935116,28.2277182 5.17960229,37.2375175 L5.1210045,37.3579095 C4.70244887,38.3182455 4.22250509,39.3401773 3.7425613,40.4209053 C3.42166865,41.1320579 3.12309897,41.8544097 2.84406188,42.5823612 C2.06554841,44.805413 1.82557652,46.9080728 2.1241462,49.0695287 C2.78267372,53.5744284 5.77674165,57.359776 9.90649052,59.039664 C11.4635175,59.70042 13.0791422,60 14.7561551,60 C15.2360989,60 15.8332382,59.9412039 16.313182,59.879608 C18.2887646,59.6388241 20.3229449,58.9808679 22.2985275,57.8385441 C24.7540539,56.4582361 27.0868039,54.4759683 29.720914,51.5921605 C32.3550241,54.4759683 34.7491623,56.4582361 37.1433005,57.8385441 C39.118883,58.9808679 41.1530634,59.6388241 43.1286459,59.879608 C43.6085897,59.9412039 44.2057291,60 44.6856729,60 C46.3626858,60 48.0369083,59.70042 49.5353374,59.039664 C53.7264745,57.3569762 56.6591542,53.5128325 57.3176817,49.0695287 C57.7976255,46.9696687 57.5576536,44.8698087 56.7819305,42.6467569 L56.7819305,42.6467569 Z" transform="translate(29.782476, 30.000000) scale(-1, 1) translate(-29.782476, -30.000000) "></path>
            </g>
        </g>
    </g>
</svg>