<?xml version="1.0" encoding="UTF-8"?>
<svg width="14px" height="18px" viewBox="0 0 14 18" version="1.1" xmlns="http://www.w3.org/2000/svg" xmlns:xlink="http://www.w3.org/1999/xlink">
    <title>Path</title>
    <g id="⚙️-Symbols" stroke="none" stroke-width="1" fill="none" fill-rule="evenodd">
        <path d="M7.03124329,17.9403238 C11.2926029,17.9403238 13.7982823,15.9033939 13.806805,12.7073742 C13.7982823,9.80112702 11.6079435,8.25851485 8.57385546,7.57669732 L7.00567514,7.20169768 C5.48863113,6.85226619 4.21874598,6.28976673 4.24431413,5.03692701 C4.24431413,3.91192809 5.24147227,3.08522433 7.04828873,3.08522433 C8.8124916,3.08522433 9.89487693,3.88635993 10.0312404,5.25851771 L13.5681689,5.25851771 C13.5170326,2.14772522 10.9602168,0 7.07385689,0 C3.24715599,0 0.443181396,2.11363435 0.460226834,5.28408587 C0.451704115,7.85794705 2.26704329,9.33237746 5.21590412,10.0397632 L7.11647049,10.5170354 C9.01703686,10.9772623 10.073854,11.5227163 10.0823767,12.6988515 C10.073854,13.9772594 8.86362791,14.8465768 6.9886297,14.8465768 C5.07101789,14.8465768 3.69033739,13.960214 3.57101932,12.2130565 L0,12.2130565 C0.0937499106,15.9886211 2.79545188,17.9403238 7.03124329,17.9403238 Z" id="Path" fill="#000000"></path>
    </g>
</svg>