<?xml version="1.0" encoding="UTF-8"?>
<svg width="50px" height="51px" viewBox="0 0 50 51" version="1.1" xmlns="http://www.w3.org/2000/svg" xmlns:xlink="http://www.w3.org/1999/xlink">
    <title>Logos/Google</title>
    <g id="⚡️-UI-Kit" stroke="none" stroke-width="1" fill="none" fill-rule="evenodd">
        <g id="Homepage-Desktop" transform="translate(-795.000000, -3359.000000)">
            <g id="Feature-03" transform="translate(2.000000, 2938.000000)">
                <g id="Content" transform="translate(163.000000, 200.000000)">
                    <g id="Right" transform="translate(570.000000, 0.000000)">
                        <g id="Logos/Google" transform="translate(55.000000, 216.000000)">
                            <g id="google-icon" transform="translate(5.000000, 5.000000)">
                                <path d="M49.8238925,25.9852284 C49.8238925,23.8951321 49.6542937,22.3699109 49.2872515,20.7882217 L25.4203533,20.7882217 L25.4203533,30.2218891 L39.4296843,30.2218891 C39.1473441,32.5662863 37.6221229,36.0969017 34.2326776,38.4693382 L34.1851666,38.7851698 L41.7314384,44.6311696 L42.2542546,44.6833538 C47.0557903,40.2488603 49.8238925,33.7242705 49.8238925,25.9852284" id="Path" fill="#4285F4" fill-rule="nonzero"></path>
                                <path d="M25.4203533,50.8407067 C32.2837514,50.8407067 38.0456332,48.5810115 42.2542546,44.6833538 L34.2326776,38.4693382 C32.0861132,39.9663254 29.205075,41.0113736 25.4203533,41.0113736 C18.6981254,41.0113736 12.9927116,36.5770748 10.9588886,30.447956 L10.6607763,30.4732692 L2.81405551,36.54592 L2.71143945,36.831181 C6.89163206,45.1350982 15.4780842,50.8407067 25.4203533,50.8407067" id="Path" fill="#34A853" fill-rule="nonzero"></path>
                                <path d="M10.9588886,30.447956 C10.4222475,28.8662667 10.1116733,27.1714467 10.1116733,25.4203533 C10.1116733,23.6690653 10.4222475,21.97444 10.9306546,20.3927507 L10.9164402,20.0558897 L2.97138715,13.8856855 L2.71143945,14.009331 C0.988580114,17.4552444 0,21.3248628 0,25.4203533 C0,29.5158439 0.988580114,33.3852676 2.71143945,36.831181 L10.9588886,30.447956" id="Path" fill="#FBBC05" fill-rule="nonzero"></path>
                                <path d="M25.4203533,9.82913839 C30.1936551,9.82913839 33.4135016,11.8910007 35.2494917,13.6140547 L42.4236587,6.60929187 C38.0175939,2.51380131 32.2837514,0 25.4203533,0 C15.4780842,0 6.89163206,5.70541381 2.71143945,14.009331 L10.9306546,20.3927507 C12.9927116,14.2636319 18.6981254,9.82913839 25.4203533,9.82913839" id="Path" fill="#EB4335" fill-rule="nonzero"></path>
                            </g>
                        </g>
                    </g>
                </g>
            </g>
        </g>
    </g>
</svg>