<?xml version="1.0" encoding="UTF-8"?>
<svg width="60px" height="60px" viewBox="0 0 60 60" version="1.1" xmlns="http://www.w3.org/2000/svg" xmlns:xlink="http://www.w3.org/1999/xlink">
    <title>Logos/Snapchat</title>
    <defs>
        <polygon id="path-1" points="0 -0.000416666667 60 -0.000416666667 60 59.9916667 0 59.9916667"></polygon>
    </defs>
    <g id="⚡️-UI-Kit" stroke="none" stroke-width="1" fill="none" fill-rule="evenodd">
        <g id="Homepage-Desktop" transform="translate(-790.000000, -3354.000000)">
            <g id="Feature-03" transform="translate(2.000000, 2938.000000)">
                <g id="Content" transform="translate(163.000000, 200.000000)">
                    <g id="Right" transform="translate(570.000000, 0.000000)">
                        <g id="Logos/Snapchat" transform="translate(55.000000, 216.000000)">
                            <g id="snapchat-seeklogo.com">
                                <g id="Group-3">
                                    <mask id="mask-2" fill="white">
                                        <use xlink:href="#path-1"></use>
                                    </mask>
                                    <g id="Clip-2"></g>
                                    <path d="M50.4397222,-0.000416666667 C55.7190278,-0.000416666667 60,4.28 60,9.56097222 L60,50.4395833 C60,55.7191667 55.7190278,60 50.4397222,60 L9.56097222,60 C4.28097222,60 0,55.7191667 0,50.4395833 L0,9.56097222 C0,4.28 4.28097222,-0.000416666667 9.56097222,-0.000416666667 L50.4397222,-0.000416666667" id="Fill-1" fill="#F5EA30" mask="url(#mask-2)"></path>
                                </g>
                                <path d="M29.6801318,50.4 C29.5657897,50.4 29.4532715,50.3968409 29.3408936,50.3916216 L29.340613,50.3916216 C29.2690615,50.3969783 29.1940027,50.4 29.1190841,50.4 C26.4887958,50.4 24.8004616,49.2316878 23.1679657,48.1016967 C22.0406793,47.3218147 20.9769474,46.5857478 19.7235339,46.3813687 C19.1119793,46.2822009 18.5032306,46.2319302 17.9148249,46.2319302 C16.8550214,46.2319302 16.0189915,46.3920821 15.4085592,46.5089682 C15.037614,46.579979 14.7175965,46.6411004 14.4744618,46.6411004 C14.2203839,46.6411004 13.9449809,46.5872586 13.8254478,46.1870162 C13.7213475,45.8402036 13.6461483,45.5043791 13.5738953,45.1795427 C13.3874406,44.3433465 13.2550002,43.8292397 12.8971025,43.7753979 C8.72523081,43.1445423 7.531163,42.2843096 7.26501958,41.6739194 C7.22727968,41.5867011 7.20581424,41.4992082 7.20076355,41.4126767 C7.18715474,41.1782177 7.35691412,40.9710915 7.59359516,40.9333199 C14.0067116,39.8993375 16.8825196,33.4824109 17.0019123,33.2099055 C17.0051392,33.2023511 17.0086466,33.1950715 17.012154,33.1875172 C17.404705,32.4088713 17.4815878,31.732827 17.2413993,31.1787509 C16.8012876,30.163311 15.3659089,29.7170558 14.4158176,29.4220247 C14.1833455,29.3500525 13.9629389,29.2819262 13.7891109,29.2146239 C11.8931372,28.480892 11.7354433,27.7276561 11.8098008,27.3437586 C11.9369098,26.6896906 12.8299003,26.2338208 13.552009,26.2338208 C13.749968,26.2338208 13.9243572,26.2681587 14.0709676,26.3351862 C14.9238331,26.7263634 15.6925204,26.9245617 16.3557043,26.9245617 C17.2721244,26.9245617 17.6721111,26.5475317 17.7210748,26.4980852 C17.6977855,26.0731195 17.6688843,25.6293367 17.6392816,25.1714066 C17.4483374,22.2029652 17.2116563,18.5146643 18.170867,16.4093399 C21.0458332,10.0984487 27.1424395,9.60824109 28.9424501,9.60824109 C28.9886078,9.60824109 29.7316208,9.60041205 29.7316208,9.60041205 L29.8382465,9.6 C31.642466,9.6 37.7524006,10.0911691 40.62891,16.4054941 C41.5884013,18.5119173 41.3510187,22.2035146 41.1597939,25.1696211 L41.151797,25.2985942 C41.1252808,25.7116102 41.0997468,26.1130888 41.0782814,26.4973984 C41.1241585,26.5431365 41.4920172,26.8899491 42.3228561,26.9211279 L42.3238382,26.9211279 C42.9551747,26.8975034 43.6807908,26.700404 44.4771166,26.3351862 C44.7105708,26.2284641 44.9696994,26.2059384 45.146193,26.2059384 C45.4157036,26.2059384 45.6888618,26.2570332 45.9157221,26.3497455 L45.9294712,26.3552396 C46.5735747,26.5787105 46.9955881,27.0207078 47.0045671,27.4824836 C47.012985,27.917476 46.6738871,28.5712693 45.0102452,29.2146239 C44.8378202,29.2809647 44.6174136,29.3495031 44.3840997,29.4220247 C43.432886,29.7174679 41.9980685,30.163311 41.5582374,31.1786136 C41.3177683,31.732415 41.3947914,32.4079098 41.7872021,33.1871051 C41.7907095,33.1946594 41.7946379,33.2019391 41.7975841,33.2099055 C41.9169768,33.4821362 44.7902595,39.8972772 51.2063221,40.9323584 C51.4431435,40.9706795 51.6123417,41.1775309 51.5992941,41.4121273 C51.5939628,41.5001697 51.5720764,41.5887614 51.5337754,41.6748808 C51.2690349,42.2808758 50.0759492,43.1400097 45.9026745,43.7712774 C45.5617527,43.8225095 45.429593,44.2575018 45.2261623,45.169516 C45.1522258,45.5014947 45.0773072,45.8274299 44.9741889,46.1703967 C44.8852406,46.4679001 44.6958396,46.6071746 44.3772251,46.6071746 L44.3253152,46.6071746 C44.1043475,46.6071746 43.7899419,46.5684415 43.3914984,46.4917993 C42.6849627,46.356508 41.8928458,46.2319302 40.8849521,46.2319302 C40.2964061,46.2319302 39.6873768,46.2822009 39.0754013,46.3813687 C37.8233908,46.5857478 36.7603604,47.3204411 35.6351784,48.099087 C33.9993154,49.2316878 32.3112618,50.4 29.6801318,50.4" id="Fill-4" fill="#FFFFFE"></path>
                                <path d="M29.8294532,8.4 L29.8276671,8.4 C29.7893359,8.4 29.7533403,8.4 29.7191307,8.40069136 C29.7191307,8.40069136 29.0074616,8.40788156 28.9508578,8.40788156 C27.1193401,8.40788156 20.9118814,8.92142737 17.9833216,15.5296309 C16.998388,17.7527837 17.2345577,21.5286037 17.4238782,24.5627275 C17.4461351,24.920578 17.4699032,25.2919792 17.4902366,25.6507975 C17.3386977,25.7352823 17.0619986,25.8403698 16.626479,25.8403698 C16.045191,25.8403698 15.3581142,25.6556371 14.5846205,25.2907347 C14.3792257,25.1939436 14.1425064,25.1455481 13.8809199,25.1455481 C12.9749843,25.1455481 11.8914061,25.7453763 11.7226938,26.6394493 C11.6011056,27.2832482 11.8872845,28.2223982 13.9437061,29.039868 C14.1293171,29.1137058 14.352435,29.1847781 14.5880552,29.2597221 C15.4375244,29.5312902 16.7216888,29.9414078 17.0702418,30.7675888 C17.2506321,31.1955437 17.1786409,31.7464232 16.8566037,32.404326 C16.8495969,32.4192594 16.8424528,32.4339164 16.8361329,32.4492647 C16.7230627,32.7139191 14.0052559,38.949477 7.9713181,39.9491906 C7.50722188,40.0262087 7.17570496,40.4428251 7.20139649,40.9153039 C7.20936498,41.0557892 7.24247546,41.1957214 7.29962881,41.3315055 C7.75245923,42.397037 9.66311231,43.1778645 13.141361,43.721139 C13.2575911,43.8794615 13.378355,44.4383609 13.4524071,44.7790655 C13.5250853,45.1150688 13.6000991,45.4615809 13.7069868,45.8271746 C13.8118138,46.186546 14.0841165,46.6161602 14.7842451,46.6161602 C15.0669893,46.6161602 15.4007045,46.5504805 15.7869018,46.4741538 C16.3664038,46.3602169 17.1599561,46.204245 18.1532704,46.204245 C18.7041958,46.204245 19.2751797,46.252364 19.850148,46.3483254 C20.9724695,46.5365149 21.9262161,47.2150204 23.0304023,48.0005491 C24.6118741,49.1259528 26.4028624,50.4 29.125203,50.4 C29.199942,50.4 29.2752305,50.3977876 29.3495574,50.3922567 C29.4378977,50.3961284 29.5526166,50.4 29.674617,50.4 C32.397782,50.4 34.1884955,49.1258146 35.7688681,48.000964 C36.8755274,47.214329 37.828587,46.5361001 38.9509085,46.3483254 C39.524915,46.252364 40.0960364,46.204245 40.6470991,46.204245 C41.5948007,46.204245 42.3446636,46.3255104 43.0134678,46.457008 C43.4325008,46.5395569 43.769788,46.5815919 44.0161245,46.5815919 L44.0419534,46.5820067 L44.066958,46.5820067 C44.5840859,46.5820067 44.9488507,46.3069818 45.0936575,45.8079546 C45.1984845,45.4498277 45.2736356,45.1123033 45.3479625,44.7704925 C45.4216023,44.4308941 45.5420915,43.8743454 45.6579095,43.7171291 C49.1371199,43.1734397 51.0472234,42.3938567 51.4990921,41.3328882 C51.5572072,41.1971042 51.5905924,41.0560657 51.5985609,40.9143359 C51.6246646,40.4415807 51.2928729,40.0255173 50.8291888,39.9487758 C44.7923659,38.9474029 42.0768947,32.7132278 41.9640993,32.4488499 C41.957642,32.4336398 41.9507726,32.4184298 41.9433537,32.4037729 C41.6210417,31.7460084 41.5497374,31.1955437 41.7299903,30.7675888 C42.0782686,29.9414078 43.3618834,29.5312902 44.21149,29.2602752 C44.449171,29.1843633 44.6725637,29.1127379 44.8562513,29.039868 C46.361198,28.4416992 47.1161443,27.7070549 47.1002073,26.8563996 C47.0871555,26.1882646 46.5701649,25.5921698 45.7483107,25.2966805 L45.7458377,25.2958508 C45.4694133,25.1803929 45.1413311,25.1173404 44.8199809,25.1173404 C44.6002977,25.1173404 44.2744136,25.1474839 43.9699621,25.2907347 C43.2541713,25.6283973 42.610784,25.8118855 42.0561491,25.836913 C41.6883618,25.8196288 41.4476583,25.7262946 41.3104078,25.6502444 C41.327856,25.3423105 41.3473651,25.0253889 41.3681107,24.6942251 L41.3758044,24.565493 C41.566224,21.5292951 41.8025311,17.7501565 40.8166358,15.5254827 C37.8868395,8.91423718 31.6661916,8.4 29.8294532,8.4 Z M29.8294532,9.3264289 C31.5018757,9.3264289 37.2617247,9.7781667 39.9762342,15.9029679 C40.8696675,17.9192644 40.6411915,21.5727128 40.4572291,24.5079714 C40.4281029,24.9733983 40.399801,25.4244447 40.3768572,25.8559946 L40.3668279,26.0410039 L40.4900648,26.178862 C40.5392497,26.234586 41.0041702,26.7231044 42.0371896,26.7634801 L42.0545005,26.763895 L42.0713992,26.7634801 C42.7543543,26.7376231 43.5241385,26.5244062 44.3602811,26.1300517 C44.4829684,26.071977 44.6467348,26.0437693 44.8199809,26.0437693 C45.0178194,26.0437693 45.2274733,26.081103 45.400582,26.154526 L45.4265483,26.1650347 C45.8645408,26.3194856 46.1744879,26.6112416 46.1797086,26.8745133 C46.182319,27.024263 46.0710348,27.5607621 44.5177276,28.1781509 C44.3660514,28.2387145 44.1658772,28.3024583 43.9343787,28.3760195 C42.9236161,28.69944 41.39655,29.1865757 40.8824446,30.4048988 C40.5928309,31.0925303 40.6716916,31.9026716 41.1176526,32.8134757 C41.3013402,33.2443343 44.1859359,39.7861668 50.6794361,40.8628984 C50.67765,40.8931802 50.6703685,40.9276101 50.6527828,40.967571 C50.5424604,41.2284921 49.8428813,42.1292023 45.4905711,42.8053571 C44.8092646,42.9111359 44.642201,43.6789657 44.4484841,44.5726239 C44.379378,44.8920345 44.3076615,45.2143488 44.2099787,45.548278 C44.1804403,45.6492173 44.1748074,45.655163 44.066958,45.655163 C44.0522575,45.655163 44.0354961,45.655163 44.0161245,45.655163 C43.8230945,45.655163 43.529634,45.6147873 43.1898738,45.5478632 C42.5730023,45.4264595 41.7271052,45.2776778 40.6470991,45.2776778 C40.0443786,45.2776778 39.4228359,45.3303598 38.8000566,45.4343411 C37.4682187,45.6575137 36.3846405,46.4288003 35.2370397,47.2446108 C33.6966469,48.3409772 32.1044589,49.4737094 29.674617,49.4737094 C29.5692406,49.4737094 29.4652379,49.4702525 29.3613727,49.4652747 L29.3340325,49.463892 L29.3064176,49.4663809 C29.2467912,49.4713587 29.1867527,49.4737094 29.125203,49.4737094 C26.6959107,49.4737094 25.1030357,48.3409772 23.5629177,47.2450256 C22.415729,46.4288003 21.3318761,45.6575137 20.0003129,45.4343411 C19.3772589,45.3303598 18.7561284,45.2776778 18.1532704,45.2776778 C17.0735392,45.2776778 16.227642,45.4431906 15.6103584,45.5647325 C15.2707355,45.6319332 14.9768629,45.6893164 14.7842451,45.6893164 C14.6267986,45.6893164 14.6235013,45.6801904 14.5902534,45.5657004 C14.492708,45.2314946 14.421129,44.9006074 14.3518855,44.5814734 C14.1580312,43.6879535 13.9902806,42.9154224 13.3097985,42.8097818 C8.95707606,42.1333505 8.2579092,41.230428 8.14744935,40.97006 C8.1298637,40.9296842 8.12258215,40.8944246 8.12107088,40.863728 C14.6140215,39.7869964 17.4986172,33.2459935 17.6823048,32.8138905 C18.1282658,31.9026716 18.2075386,31.0930834 17.9176502,30.4058667 C17.403957,29.1871288 15.8767534,28.69944 14.8658535,28.3760195 C14.6342176,28.3027348 14.4341808,28.2387145 14.2823672,28.1781509 C12.9700383,27.6565853 12.5668049,27.131148 12.6272556,26.812567 C12.6967738,26.445314 13.3291702,26.071977 13.8809199,26.071977 C14.0051185,26.071977 14.1135175,26.0918883 14.1940268,26.1300517 C15.0904827,26.552199 15.9093144,26.7670752 16.626479,26.7670752 C17.7552578,26.7670752 18.2576852,26.2384577 18.3109917,26.1785855 L18.4334043,26.0410039 L18.423375,25.8565477 C18.4004312,25.4258274 18.3722667,24.9749193 18.3430031,24.509769 C18.1593155,21.5745104 17.9308395,17.9235508 18.8244101,15.9068396 C21.5283408,9.80457684 27.2600253,9.33444874 28.9522316,9.33444874 C28.9939975,9.33444874 29.7294348,9.32712027 29.7294348,9.32712027 C29.761034,9.3264289 29.7941445,9.3264289 29.8294532,9.3264289 L29.8294532,9.3264289 Z" id="Fill-5" fill="#0B0C0A"></path>
                            </g>
                        </g>
                    </g>
                </g>
            </g>
        </g>
    </g>
</svg>