<?xml version="1.0" encoding="UTF-8"?>
<svg width="375px" height="467px" viewBox="0 0 375 467" version="1.1" xmlns="http://www.w3.org/2000/svg" xmlns:xlink="http://www.w3.org/1999/xlink">
    <title>Illustration</title>
    <defs>
        <rect id="path-1" x="0" y="0" width="375" height="467"></rect>
    </defs>
    <g id="⚡️-UI-Kit" stroke="none" stroke-width="1" fill="none" fill-rule="evenodd">
        <g id="Homepage-Mobile">
            <g id="Hero">
                <g id="Illustration">
                    <mask id="mask-2" fill="white">
                        <use xlink:href="#path-1"></use>
                    </mask>
                    <use id="Mask" fill="#FFFFFF" opacity="0" xlink:href="#path-1"></use>
                    <path d="M462,-47 C461.979206,-43.9952207 458.348078,-38.5203667 457.209614,-36.0216006 C445.682017,-10.7131165 433.956878,29.7731547 401.739389,34.9245775 C389.374839,36.9016806 376.864732,31.9563146 366.309248,25.2007778 C346.102812,12.2687502 328.747736,-4.34361041 306.251377,-13.60313 C277.327115,-25.5022647 264.603871,1.20166807 268.77304,26.5675351 C272.513336,49.3146534 284.79471,66.216537 290.902907,87.4482242 C294.164944,98.7917877 297.426981,119.921751 282.892072,120 L460.728975,119.045357 L462,-47" id="Fill-17" fill="#FF6363" mask="url(#mask-2)" transform="translate(365.000000, 36.500000) rotate(-90.000000) translate(-365.000000, -36.500000) "></path>
                    <path d="M469.171803,467.703399 C469.131192,466.674078 468.774982,465.56457 468.266613,464.393143 C467.500537,462.640227 466.368148,460.759261 465.286445,459.040216 C464.20615,457.323988 463.169497,455.761233 462.625867,454.736257 C454.891107,440.196541 446.946092,421.149502 435.728626,405.080011 C424.521021,389.017558 409.959258,375.873533 389.038852,373.376396 C387.060656,373.140314 385.083839,373.028145 383.112631,373.028624 C369.054915,373.036263 355.348064,378.750904 343.641632,386.022433 C318.171295,401.857233 296.559245,421.799973 268.267711,433.299874 C261.781387,435.937439 255.942154,437.113225 250.758398,437.114484 C240.419069,437.107139 232.655127,432.48337 227.381547,425.237087 C222.116421,417.989394 219.405071,408.089602 219.409013,397.672372 C219.409757,394.609723 219.644409,391.501958 220.115772,388.406808 C224.132259,361.924836 239.253032,341.809068 246.453566,316.647133 C248.007622,311.20017 249.512817,303.883243 249.515884,297.062337 C249.512862,292.107183 248.732006,287.397231 246.499585,283.845101 C245.38267,282.071149 243.890885,280.594399 241.974876,279.576798 C240.058867,278.556381 237.731315,277.997925 234.961196,278 C234.81325,278 234.663894,278 234.514538,278.004339 L234.543785,279.412446 C234.684687,279.409595 234.822771,279.408154 234.960854,279.40812 C237.544982,279.407492 239.625968,279.922357 241.312338,280.818916 C243.834142,282.16446 245.517373,284.383239 246.594579,287.211879 C247.668968,290.037704 248.109158,293.457906 248.106872,297.062679 C248.106672,303.679408 246.62968,310.906209 245.09819,316.261639 C238.025954,341.103901 222.837532,361.287275 218.72231,388.194522 C218.241067,391.361487 218,394.538252 218,397.672714 C218,408.330731 220.756599,418.505094 226.241455,426.063927 C231.716447,433.624171 239.981928,438.533665 250.758056,438.522599 C256.154573,438.521288 262.17417,437.297582 268.798592,434.603659 C297.386051,422.968507 319.060117,402.945489 344.385299,387.217742 C355.955038,380.026508 369.44487,374.437242 383.112289,374.436738 C385.028545,374.436272 386.950411,374.545638 388.870839,374.774694 C409.251608,377.211413 423.459801,389.97815 434.57304,405.885733 C445.677826,421.786277 453.60454,440.768548 461.381549,455.396965 C462.187136,456.907676 463.763269,459.178582 465.15903,461.522753 C465.854798,462.691318 466.502656,463.873977 466.975821,464.956702 C467.450395,466.038018 467.74182,467.027852 467.762779,467.753026 L469.171803,467.703399" id="Fill-1680" fill="#F8F8F8" mask="url(#mask-2)" transform="translate(343.585902, 372.876513) rotate(-255.000000) translate(-343.585902, -372.876513) "></path>
                    <path d="M-20.4269445,463.859676 C8.13311687,462.066852 48.8096469,443.396399 33.7597997,408.522583 C23.2454872,384.167885 -2.26135956,368.759011 -28.2110788,379.448003 C-48.9609546,387.99397 -58.3446399,406.988491 -57.9903419,428.768945 C-57.8314289,438.553684 -57.4276334,450.285441 -49.2865961,456.949726 C-41.5285132,463.305626 -30.0633276,464.460768 -20.4269445,463.859676" id="Fill-1082" fill="#121212" mask="url(#mask-2)" transform="translate(-10.500000, 420.000000) rotate(-90.000000) translate(10.500000, -420.000000) "></path>
                    <path d="M128.879467,234.37611 C128.960545,233.945043 128.995537,233.486357 128.995537,233.002684 C128.990698,230.851123 128.311976,228.173547 127.557289,225.618172 C126.802606,223.071997 125.961472,220.648018 125.617468,219.175823 C121.572174,201.96034 118.401658,179.915061 111.346156,160.315429 C107.816439,150.514298 103.313178,141.317349 97.2194527,133.64041 C91.1270388,125.964786 83.433676,119.810483 73.5761992,116.140666 C67.9750019,114.05378 62.117424,113.161512 56.2130379,113.159026 C46.121191,113.156091 35.8849539,115.742326 26.4604555,119.419796 C-2.05808195,130.559879 -27.8181596,146.942672 -58.049274,152.8418 C-61.5758877,153.530338 -64.848393,153.8536 -67.8759473,153.852325 C-78.6047645,153.838607 -86.231707,149.79646 -91.2606771,143.36464 C-96.2857171,136.928878 -98.6866015,128.033796 -98.6893685,118.344554 C-98.6926789,110.478287 -97.1182076,102.098782 -94.1241542,94.1246876 C-83.8826015,66.7975064 -64.3867115,48.7744211 -51.4037098,23.6406967 C-47.463248,15.9850689 -42.7184023,4.40124732 -42.7105853,-5.05272543 C-42.7120948,-8.63953277 -43.4041876,-11.9453642 -45.1563021,-14.5918483 C-46.9071071,-17.2409606 -49.7270838,-19.1728987 -53.7694126,-20 L-54.0336178,-18.7120678 C-50.2547431,-17.927136 -47.8096972,-16.2109058 -46.2477507,-13.8654834 C-44.6884237,-11.516119 -44.0213451,-8.47710709 -44.0212148,-5.05327726 C-44.0056203,3.97354807 -48.6692335,15.494316 -52.5678033,23.0356147 C-65.3870831,47.9157424 -84.9524148,65.9900573 -95.3510987,93.6602125 C-98.3975176,101.776232 -100,110.301616 -100,118.344002 C-99.9945212,128.243538 -97.5528856,137.42779 -92.2931125,144.173832 C-87.0359584,150.925131 -78.9331717,155.1712 -67.8753941,155.166655 C-64.7547852,155.167969 -61.398404,154.834228 -57.7984011,154.131263 C-27.2553885,148.15735 -1.42587508,131.70887 26.9367296,120.644952 C36.2563942,117.006868 46.3471713,114.467888 56.2135911,114.473356 C61.9882248,114.475788 67.6858971,115.346959 73.1206184,117.372001 C82.7355922,120.95497 90.2204919,126.935695 96.1935744,134.458806 C105.152541,145.73953 110.683057,160.504414 114.717015,175.697139 C118.753594,190.889865 121.29492,206.498604 124.341041,219.476268 C124.717864,221.074652 125.556366,223.473657 126.301863,225.990913 C127.047356,228.498969 127.688048,231.12527 127.684906,233.002132 C127.685083,233.421403 127.653787,233.801231 127.592325,234.127159 L128.879468,234.37611" id="Fill-1080" fill="#DBDBDB" opacity="0.300000012" mask="url(#mask-2)" transform="translate(14.497768, 107.188055) scale(1, -1) rotate(-150.000000) translate(-14.497768, -107.188055) "></path>
                    <path d="M-135.784996,476.152548 C-135.784996,469.457007 -135.568948,454.616876 -135.568948,438.990024 C-135.568948,421.088738 -135.568948,403.187452 -135.568948,385.286167 C-135.568948,371.767325 -135.568948,358.248484 -135.568948,344.729643 C-135.568948,341.742453 -136.903756,337.571818 -134.875585,335.164584 C-134.173848,334.330793 -133.066812,333.707131 -131.361875,333.419675 C-118.80095,331.301578 -106.126139,328.242103 -93.3809862,326.229911 C-81.1650674,324.303451 -67.1420501,322.45768 -55.1706507,326.028187 C-36.5134893,331.595758 -26.3910581,347.088128 -26.5953825,362.071146 C-26.8248287,379.004159 -35.6995413,394.72683 -44.462043,409.904847 C-49.9888502,419.479993 -57.5153568,428.749191 -59.699283,439.857435 C-62.2014194,452.587873 -53.2680892,460.868626 -40.9466586,461.177935 C-23.9659621,461.603236 -8.40883709,452.404641 5.80008188,444.140699 C19.3256865,436.27348 31.5734263,426.427689 44.8947065,418.239393 C57.0871782,410.742 67.7656397,406.776451 82.2542487,408.415455 C106.637517,411.174025 126.595991,428.335657 139.068152,448.684522 C142.828056,454.816919 147.984735,462.697586 148,470.110927 C148,470.714417 147.991434,478 148,478 L-135.784996,476.152548" id="Fill-1677" fill="#FF6363" mask="url(#mask-2)" transform="translate(6.000000, 401.000000) rotate(-360.000000) translate(-6.000000, -401.000000) "></path>
                </g>
            </g>
        </g>
    </g>
</svg>